<svg xmlns="http://www.w3.org/2000/svg" width="88" height="60"><path d="M10.376 42.762h11v3h-11zm12.78 0h11v3h-11z"/><path d="M69.38.885c-7.114 0-13.26 4.177-16.155 10.198H9.57c-5.04 0-9.142 3.67-9.142 8.18v32c0 4.51 4.1 8.18 9.14 8.18h56.864c5.04 0 9.14-3.67 9.14-8.18V35.64c6.847-2.53 11.75-9.1 11.75-16.813 0-9.893-8.048-17.94-17.94-17.94zM3.43 19.262c0-2.855 2.754-5.18 6.14-5.18H52.1c-.416 1.514-.656 3.1-.656 4.742 0 2.45.496 4.786 1.39 6.915H3.43v-6.48zm69.143 32.002c0 2.855-2.754 5.178-6.14 5.178H9.568c-3.387 0-6.142-2.322-6.142-5.178V28.74h51.02c3.216 4.83 8.706 8.02 14.933 8.02 1.09 0 2.152-.112 3.19-.3v14.804zM69.38 33.762c-8.235 0-14.937-6.7-14.937-14.938s6.7-14.94 14.938-14.94c8.24 0 14.94 6.703 14.94 14.94 0 8.237-6.7 14.938-14.94 14.938z"/><path d="M67.577 21.93l-5.4-5.402-2.122 2.12 7.522 7.523L78.71 15.04l-2.122-2.122"/></svg>