<svg xmlns="http://www.w3.org/2000/svg" width="88" height="60"><path d="M10.502 42.637h11v3h-11zm12.778 0h11v3h-11z"/><path d="M69.508.76c-7.117 0-13.26 4.177-16.156 10.198H9.695c-5.04 0-9.14 3.67-9.14 8.18v32c0 4.51 4.1 8.18 9.14 8.18H66.56c5.038 0 9.14-3.67 9.14-8.18V35.514c6.846-2.53 11.748-9.1 11.748-16.813 0-9.89-8.05-17.94-17.94-17.94zM3.555 19.137c0-2.855 2.755-5.18 6.14-5.18H52.23c-.416 1.514-.656 3.1-.656 4.742 0 2.45.496 4.78 1.39 6.91H3.554v-6.48zM72.7 51.14c0 2.854-2.756 5.177-6.14 5.177H9.694c-3.386 0-6.14-2.322-6.14-5.178V28.61H54.57c3.217 4.83 8.71 8.022 14.936 8.022 1.09 0 2.152-.113 3.19-.3v14.803h.002zm-3.192-17.503c-8.236 0-14.938-6.7-14.938-14.938 0-8.24 6.7-14.94 14.938-14.94 8.237 0 14.94 6.7 14.94 14.94 0 8.23-6.703 14.93-14.94 14.93z"/><path d="M71.008 10.567h-3v6.63h-6.633v3h6.633v6.633h3v-6.632h6.63v-3h-6.63"/></svg>